<svg width="200" height="200" viewBox="0 0 200 200" fill="none" xmlns="http://www.w3.org/2000/svg">
<path d="M200 100.002C200 155.231 155.228 200.002 100 200.002C44.7698 200.002 0 155.23 0 100.002C0 44.7721 44.7692 0 100 0C155.228 0 200 44.7721 200 100.002Z" fill="#E94E1B"/>
<mask id="mask0_342_389" style="mask-type:luminance" maskUnits="userSpaceOnUse" x="0" y="0" width="200" height="201">
<path d="M200 100.002C200 155.231 155.228 200.002 100 200.002C44.7698 200.002 0 155.23 0 100.002C0 44.7721 44.7692 0 100 0C155.228 0 200 44.7721 200 100.002Z" fill="white"/>
</mask>
<g mask="url(#mask0_342_389)">
<path d="M61.6616 76.0599C61.6616 82.9713 78.332 104.33 97.5535 104.33C116.777 104.33 133.331 81.5353 133.331 74.6286C133.331 67.7224 117.747 67.9363 98.5257 67.9363C79.3025 67.9363 61.6616 69.1538 61.6616 76.0599Z" fill="#432918"/>
<path d="M81.478 121.002H111.921V109.756C111.921 109.756 108.7 106.799 98.4413 106.799C88.1849 106.799 84.0862 108.772 84.0862 108.772L81.478 121.002Z" fill="#042439"/>
<path d="M71.4188 144.671H123.694L128.425 119.159L106.334 114.426V99.8945H88.7761V114.426L66.6826 119.159L71.4188 144.671Z" fill="#FEDFB3"/>
<path d="M88.7759 102.852C88.7759 102.852 92.72 108.772 97.8503 108.772C102.979 108.772 106.333 102.852 106.333 102.852V99.8945H88.7759V102.852Z" fill="#E5C9A6"/>
<path d="M127.398 78.6577C121.141 96.5031 111.921 105.224 98.2133 105.224C84.3382 105.224 75.5991 96.3084 68.7754 78.6577C64.1438 66.6753 66.5311 52.0947 66.5311 52.0947C66.5311 35.2599 71.5213 17.1152 98.2133 17.1152C124.902 17.1152 129.892 38.1534 129.892 54.4605C129.892 54.4605 130.684 69.2881 127.398 78.6577Z" fill="#FEDFB3"/>
<path d="M58.6397 71.2382C60.3256 76.7991 66.1334 79.7303 67.4218 76.82C68.6747 73.9887 71.2474 72.4313 70.4623 67.7119C69.6731 62.9902 63.5916 57.8954 60.9573 59.3221C56.8446 61.5519 57.2537 66.6734 58.6397 71.2382Z" fill="#FEDFB3"/>
<path d="M136.549 70.6556C134.863 76.2165 129.053 79.1454 127.764 76.2356C126.511 73.4067 123.937 71.8469 124.726 67.1252C125.511 62.4082 131.595 57.3134 134.229 58.7401C138.344 60.9699 137.93 66.0885 136.549 70.6556Z" fill="#FEDFB3"/>
<path d="M126.884 67.9335C126.884 67.9335 129.186 57.601 135.22 59.4176C135.358 55.1311 135.536 47.8298 135.536 47.8298C135.536 47.8298 138.36 46.1846 138.691 43.8833C133.496 38.0302 129.975 8.443 99.4341 7.39174C93.205 7.17556 86.0774 6.60024 81.1256 13.2234C69.7139 7.27726 62.4817 31.192 57.6723 37.6373C57.1824 38.2911 61.155 39.318 60.9865 40.1263C59.5174 47.1208 58.9013 54.5291 59.9666 59.9993C65.7198 56.2359 68.3354 67.9375 68.3354 67.9375L70.463 67.7115C70.463 67.7115 67.161 61.9199 71.4189 57.3389C70.6082 39.118 80.1562 41.0579 83.4606 36.8859C95.4929 25.5382 88.7076 40.0455 104.123 46.3171C118.454 52.1488 124.576 51.5572 123.694 57.3389C128.201 61.1685 125.299 67.5714 125.299 67.5714L126.884 67.9335Z" fill="#432918"/>
<path d="M71.4189 228.051H123.694L123.171 118.6L109.33 113.902C109.33 113.902 105.935 119.161 97.9464 119.161C89.9559 119.161 87.1717 113.902 87.1717 113.902L72.2796 118.008L71.4189 228.051Z" fill="white"/>
<path d="M111.921 109.758L107.458 125.88L97.7917 135.216L95.2266 254.224L133.465 252.434C133.465 252.434 131.131 179.75 131.045 172.254C130.964 164.758 133.141 152.921 133.141 152.921L133.684 119.162L118.437 116.57L111.921 109.758Z" fill="#004B81"/>
<path d="M109.95 108.639C111.593 116.135 97.7915 135.214 97.7915 135.214L110.031 133.635L108.566 128.899L115.715 129.165L118.437 116.568C118.437 116.568 114.289 110.481 109.95 108.639Z" fill="#0B73B1"/>
<path d="M147.494 141.515C148.429 145.956 155.073 218.663 154.633 238.891C153.421 241.263 142.052 245.811 140.674 244.002C138.743 216.74 132.576 150.911 132.576 146.265C132.576 140.11 127.531 119.16 133.684 119.16C139.841 119.16 144.339 126.528 147.494 141.515Z" fill="#004B81"/>
<path d="M82.426 109.758L88.776 126.14L97.7911 135.215L95.226 254.223L60.7364 252.433C60.7364 252.433 63.2184 179.75 63.3015 172.254C63.3846 164.758 61.2048 152.921 61.2048 152.921L60.6626 119.161L75.9115 116.57L82.426 109.758Z" fill="#004B81"/>
<path d="M46.8548 141.515C45.9181 145.956 39.2565 218.554 39.6988 238.784C40.911 241.159 52.2966 245.811 53.6779 244.002C55.6038 216.74 61.7707 150.911 61.7707 146.265C61.7707 140.11 66.8179 119.16 60.6631 119.16C54.5054 119.16 50.0075 126.528 46.8548 141.515Z" fill="#004B81"/>
<path d="M100.3 75.6876C100.3 75.6876 99.3915 77.2229 97.4186 77.2229C95.4427 77.2229 94.1329 76.6383 93.8429 76.31C93.5529 75.9822 95.7856 72.0352 95.7856 72.0352C95.7856 72.0352 94.7442 74.7932 95.2173 75.4731C95.688 76.1577 96.967 76.1438 97.5801 76.1438C99.5531 76.1443 100.3 75.6876 100.3 75.6876Z" fill="#E5C9A6"/>
<path d="M87.9322 86.6904C87.9368 86.6857 87.9467 86.7903 88.0391 86.9187C88.1321 87.0472 88.2838 87.2233 88.5029 87.4081C88.7237 87.5934 89.0259 87.7887 89.378 87.9241C89.5536 87.988 89.7343 88.0548 89.8941 88.0595C89.9818 88.0641 90.0155 88.0502 90.0963 88.0357L90.4816 87.9781C91.0093 87.9119 91.4753 87.8021 92.0745 87.669C92.6643 87.5452 93.2844 87.4144 93.9266 87.279C95.2248 87.0129 96.6532 86.82 98.1276 86.7892C98.8412 86.8322 99.5542 86.8746 100.253 86.9176C100.933 86.9344 101.627 87.046 102.298 87.1646C102.963 87.286 103.624 87.3552 104.204 87.5167C104.782 87.6545 105.327 87.7829 105.828 87.9043C106.03 87.9473 106.325 88.0613 106.427 88.052C106.729 88.0543 106.715 88.0304 106.915 87.9781C107.262 87.8881 107.542 87.6736 107.766 87.4981C108.194 87.1181 108.303 86.7543 108.303 86.7543C108.279 86.7328 108.448 87.1465 108.127 87.7643C107.966 88.0543 107.756 88.4227 107.352 88.7441C107.181 88.8911 106.749 89.0817 106.573 89.1148C106.202 89.2194 106.002 89.1172 105.686 89.1195C105.156 89.062 104.58 89.0003 103.974 88.9387C103.391 88.8841 102.778 88.8272 102.144 88.7679C101.516 88.711 100.872 88.6494 100.173 88.6348C99.4996 88.611 98.8174 88.5872 98.1328 88.5616C96.8107 88.5424 95.4631 88.7301 94.177 88.8609C93.5302 88.93 92.9073 89.03 92.2988 89.0771C91.7136 89.1294 91.0552 89.1915 90.5391 89.1817L90.1539 89.1695C89.9877 89.1718 89.7738 89.1241 89.6308 89.0672C89.3263 88.9486 89.1078 88.7987 88.9178 88.6342C88.561 88.3013 88.3279 87.9712 88.1664 87.6789C87.8136 87.0948 87.9368 86.6671 87.9322 86.6904Z" fill="#CEA27B"/>
<path d="M75.6455 54.1626C75.6455 54.1626 78.2891 51.5923 84.7652 51.3069C86.6103 51.2238 88.531 51.2192 89.2638 51.2808C90.0006 51.3424 90.0053 49.051 89.52 49.0242C89.0325 48.9981 84.6368 48.8034 82.6348 49.1695C76.8415 50.2278 75.6455 54.1626 75.6455 54.1626Z" fill="#432918"/>
<path d="M118.031 54.1626C118.031 54.1626 115.387 51.5923 108.911 51.3069C107.066 51.2238 105.145 51.2192 104.413 51.2808C103.676 51.3424 103.669 49.051 104.156 49.0242C104.644 48.9981 109.039 48.8034 111.041 49.1695C116.832 50.2278 118.031 54.1626 118.031 54.1626Z" fill="#432918"/>
<path d="M89.8365 63.986C89.8365 65.1082 87.5044 66.221 83.9618 66.221C79.63 66.221 77.0864 64.4806 77.0864 63.1352C77.0864 60.4678 80.9335 59.2696 84.0908 59.8542C87.5753 60.501 89.8365 62.0892 89.8365 63.986Z" fill="white"/>
<path d="M87.3044 63.2206C87.3044 64.445 86.7384 65.4887 85.797 66.128C84.5609 66.221 82.488 66.3541 81.446 66.0042C80.5738 65.3551 80.0223 64.1091 80.1838 62.9492C80.443 61.1349 81.779 59.8535 83.745 59.8535C85.711 59.8535 87.3044 61.1355 87.3044 63.2206Z" fill="#583636"/>
<path d="M77.086 63.5365C77.086 63.5365 77.0668 63.2773 77.043 62.8258C77.0953 62.3742 77.1691 61.6513 77.7183 60.9952C78.2558 60.3438 79.1589 59.8568 80.148 59.6214C81.1464 59.4169 82.2238 59.3837 83.2791 59.4645C84.3228 59.5098 85.3973 59.8022 86.3318 60.1875C87.2755 60.5582 88.0484 61.1289 88.6307 61.6804C89.2252 62.2249 89.5745 62.8264 89.7337 63.2686C89.9005 63.7155 89.8244 63.9915 89.836 63.9863C89.836 63.9863 89.8006 63.7178 89.5582 63.354C89.3322 62.9786 88.869 62.5503 88.2699 62.1081C87.673 61.6658 86.8862 61.2899 86.0278 60.9621C85.1695 60.6245 84.2066 60.4891 83.1966 60.3676C81.2329 60.1561 79.131 60.3345 78.0849 61.3329C77.0337 62.3452 77.1435 63.5859 77.086 63.5365Z" fill="#583636"/>
<path d="M85.8426 63.7221C85.8426 64.8257 84.9459 65.7218 83.8429 65.7218C82.7376 65.7218 81.8433 64.8257 81.8433 63.7221C81.8433 62.6168 82.737 61.7207 83.8429 61.7207C84.9459 61.7207 85.8426 62.6168 85.8426 63.7221Z" fill="#432827"/>
<path d="M84.293 62.7981C84.293 63.2874 84.6945 63.6872 85.1867 63.6872C85.679 63.6872 86.0782 63.288 86.0782 62.7981C86.0782 62.3035 85.679 61.9043 85.1867 61.9043C84.6945 61.9043 84.293 62.3035 84.293 62.7981Z" fill="white"/>
<path d="M84.8799 61.4314C84.8799 61.5906 84.7515 61.7213 84.5876 61.7213C84.4237 61.7213 84.293 61.5906 84.293 61.4314C84.293 61.2675 84.4237 61.1367 84.5876 61.1367C84.7515 61.1361 84.8799 61.2675 84.8799 61.4314Z" fill="white"/>
<path d="M106.037 63.986C106.037 65.1082 108.369 66.221 111.911 66.221C116.243 66.221 118.787 64.4806 118.787 63.1352C118.787 60.4678 114.94 59.2696 111.783 59.8542C108.298 60.501 106.037 62.0892 106.037 63.986Z" fill="white"/>
<path d="M108.566 63.2206C108.566 64.445 109.134 65.4887 110.076 66.128C111.312 66.221 113.38 66.3541 114.427 66.0042C115.297 65.3551 115.851 64.1091 115.689 62.9492C115.43 61.1349 114.094 59.8535 112.131 59.8535C110.162 59.8541 108.566 61.1355 108.566 63.2206Z" fill="#583636"/>
<path d="M118.787 63.5371C118.73 63.5871 118.84 62.3458 117.789 61.3329C116.743 60.3345 114.641 60.1561 112.677 60.3676C111.667 60.4891 110.704 60.6245 109.846 60.9621C108.987 61.2899 108.198 61.6658 107.601 62.1081C107.004 62.5503 106.541 62.978 106.315 63.354C106.073 63.7178 106.037 63.9863 106.037 63.9863C106.049 63.991 105.973 63.7155 106.139 63.2686C106.298 62.8264 106.648 62.2249 107.242 61.6804C107.822 61.126 108.597 60.5582 109.541 60.1874C110.476 59.8022 111.55 59.5099 112.594 59.4645C113.652 59.3837 114.727 59.4169 115.725 59.6214C116.714 59.8568 117.618 60.3443 118.155 60.9952C118.701 61.6519 118.778 62.3742 118.83 62.8258C118.804 63.2773 118.787 63.5371 118.787 63.5371Z" fill="#583636"/>
<path d="M110.031 63.7221C110.031 64.8257 110.927 65.7218 112.03 65.7218C113.134 65.7218 114.028 64.8257 114.028 63.7221C114.028 62.6168 113.134 61.7207 112.03 61.7207C110.927 61.7207 110.031 62.6168 110.031 63.7221Z" fill="#432827"/>
<path d="M111.58 62.7981C111.58 63.2874 111.178 63.6872 110.686 63.6872C110.194 63.6872 109.795 63.288 109.795 62.7981C109.795 62.3035 110.194 61.9043 110.686 61.9043C111.178 61.9043 111.58 62.3035 111.58 62.7981Z" fill="white"/>
<path d="M110.994 61.4314C110.994 61.5906 111.122 61.7213 111.286 61.7213C111.45 61.7213 111.581 61.5906 111.581 61.4314C111.581 61.2675 111.45 61.1367 111.286 61.1367C111.122 61.1361 110.994 61.2675 110.994 61.4314Z" fill="white"/>
<path d="M84.3044 108.639C82.6639 116.135 97.7913 135.214 97.7913 135.214L85.1982 133.683L85.6875 128.899L78.5361 129.165L75.8164 116.568C75.8164 116.568 79.968 110.481 84.3044 108.639Z" fill="#0B73B1"/>
<path d="M100.044 145.338C100.044 146.572 99.0454 147.575 97.8041 147.575C96.5681 147.575 95.5645 146.572 95.5645 145.338C95.5645 144.097 96.5675 143.094 97.8041 143.094C99.0454 143.094 100.044 144.097 100.044 145.338Z" fill="white"/>
<path d="M100.044 163.915C100.044 165.152 99.0454 166.157 97.8041 166.157C96.5681 166.157 95.5645 165.152 95.5645 163.915C95.5645 162.679 96.5675 161.676 97.8041 161.676C99.0454 161.676 100.044 162.679 100.044 163.915Z" fill="white"/>
<path d="M100.044 182.496C100.044 183.732 99.0454 184.736 97.8041 184.736C96.5681 184.736 95.5645 183.733 95.5645 182.496C95.5645 181.257 96.5675 180.254 97.8041 180.254C99.0454 180.254 100.044 181.257 100.044 182.496Z" fill="white"/>
<path d="M97.8041 203.315C99.0411 203.315 100.044 202.313 100.044 201.076C100.044 199.839 99.0411 198.836 97.8041 198.836C96.5672 198.836 95.5645 199.839 95.5645 201.076C95.5645 202.313 96.5672 203.315 97.8041 203.315Z" fill="white"/>
</g>
</svg>
