<svg width="36" height="36" viewBox="0 0 36 36" fill="none" xmlns="http://www.w3.org/2000/svg">
<mask id="mask0_121_288" style="mask-type:alpha" maskUnits="userSpaceOnUse" x="0" y="0" width="36" height="36">
<rect width="36" height="36" fill="#D9D9D9"/>
</mask>
<g mask="url(#mask0_121_288)">
<path d="M8.77549 25.652C10.0505 24.677 11.4755 23.9082 13.0505 23.3457C14.6255 22.7832 16.2755 22.502 18.0005 22.502C19.7255 22.502 21.3755 22.7832 22.9505 23.3457C24.5255 23.9082 25.9505 24.677 27.2255 25.652C28.1005 24.627 28.7817 23.4645 29.2692 22.1645C29.7567 20.8645 30.0005 19.477 30.0005 18.002C30.0005 14.677 28.8317 11.8457 26.4942 9.5082C24.1567 7.1707 21.3255 6.00195 18.0005 6.00195C14.6755 6.00195 11.8442 7.1707 9.50674 9.5082C7.16924 11.8457 6.00049 14.677 6.00049 18.002C6.00049 19.477 6.24424 20.8645 6.73174 22.1645C7.21924 23.4645 7.90049 24.627 8.77549 25.652ZM18.0005 19.502C16.5255 19.502 15.2817 18.9957 14.2692 17.9832C13.2567 16.9707 12.7505 15.727 12.7505 14.252C12.7505 12.777 13.2567 11.5332 14.2692 10.5207C15.2817 9.5082 16.5255 9.00195 18.0005 9.00195C19.4755 9.00195 20.7192 9.5082 21.7317 10.5207C22.7442 11.5332 23.2505 12.777 23.2505 14.252C23.2505 15.727 22.7442 16.9707 21.7317 17.9832C20.7192 18.9957 19.4755 19.502 18.0005 19.502ZM18.0005 33.002C15.9255 33.002 13.9755 32.6082 12.1505 31.8207C10.3255 31.0332 8.73799 29.9645 7.38799 28.6145C6.03799 27.2645 4.96924 25.677 4.18174 23.852C3.39424 22.027 3.00049 20.077 3.00049 18.002C3.00049 15.927 3.39424 13.977 4.18174 12.152C4.96924 10.327 6.03799 8.73945 7.38799 7.38945C8.73799 6.03945 10.3255 4.9707 12.1505 4.1832C13.9755 3.3957 15.9255 3.00195 18.0005 3.00195C20.0755 3.00195 22.0255 3.3957 23.8505 4.1832C25.6755 4.9707 27.263 6.03945 28.613 7.38945C29.963 8.73945 31.0317 10.327 31.8192 12.152C32.6067 13.977 33.0005 15.927 33.0005 18.002C33.0005 20.077 32.6067 22.027 31.8192 23.852C31.0317 25.677 29.963 27.2645 28.613 28.6145C27.263 29.9645 25.6755 31.0332 23.8505 31.8207C22.0255 32.6082 20.0755 33.002 18.0005 33.002ZM18.0005 30.002C19.3255 30.002 20.5755 29.8082 21.7505 29.4207C22.9255 29.0332 24.0005 28.477 24.9755 27.752C24.0005 27.027 22.9255 26.4707 21.7505 26.0832C20.5755 25.6957 19.3255 25.502 18.0005 25.502C16.6755 25.502 15.4255 25.6957 14.2505 26.0832C13.0755 26.4707 12.0005 27.027 11.0255 27.752C12.0005 28.477 13.0755 29.0332 14.2505 29.4207C15.4255 29.8082 16.6755 30.002 18.0005 30.002ZM18.0005 16.502C18.6505 16.502 19.188 16.2895 19.613 15.8645C20.038 15.4395 20.2505 14.902 20.2505 14.252C20.2505 13.602 20.038 13.0645 19.613 12.6395C19.188 12.2145 18.6505 12.002 18.0005 12.002C17.3505 12.002 16.813 12.2145 16.388 12.6395C15.963 13.0645 15.7505 13.602 15.7505 14.252C15.7505 14.902 15.963 15.4395 16.388 15.8645C16.813 16.2895 17.3505 16.502 18.0005 16.502Z" fill="#1C1B1F"/>
</g>
</svg>
