<svg width="16" height="16" viewBox="0 0 16 16" fill="none" xmlns="http://www.w3.org/2000/svg">
<path d="M10.9091 5.09091H14.9091L10.9091 1.09091V5.09091ZM4.36364 0H11.6364L16 4.36364V11.6364C16 12.0221 15.8468 12.3921 15.574 12.6649C15.3012 12.9377 14.9312 13.0909 14.5455 13.0909H4.36364C3.97787 13.0909 3.6079 12.9377 3.33512 12.6649C3.06234 12.3921 2.90909 12.0221 2.90909 11.6364V1.45455C2.90909 1.06878 3.06234 0.698807 3.33512 0.426026C3.6079 0.153246 3.97787 0 4.36364 0ZM1.45455 2.90909V14.5455H14.5455V16H1.45455C1.06878 16 0.698807 15.8468 0.426027 15.574C0.153246 15.3012 0 14.9312 0 14.5455V2.90909H1.45455Z" fill="#666666"/>
</svg>
