<svg width="30" height="26" viewBox="0 0 30 26" fill="none" xmlns="http://www.w3.org/2000/svg">
<g clip-path="url(#clip0_3_85)">
<path d="M14.58 7.65637L14.64 8.69637L13.56 8.57751C9.6 8.07237 6.15 6.37866 3.24 3.5558L1.8 2.12951L1.44 3.16951C0.66 5.48723 1.14 7.95351 2.79 9.5878C3.63 10.5089 3.45 10.6278 1.95 10.0929C1.44 9.91466 0.99 9.7958 0.93 9.85523C0.78 10.0038 1.29 11.9947 1.71 12.7672C2.28 13.837 3.42 14.9067 4.68 15.5307L5.76 16.0358L4.5 16.0655C3.27 16.0655 3.24 16.0655 3.36 16.541C3.78 17.9375 5.52 19.4232 7.41 20.077L8.76 20.5524L7.59 21.2358C5.85 22.2461 3.81 22.8107 1.77 22.8404C0.81 22.8701 0 22.9592 0 23.0187C0 23.2267 2.64 24.445 4.2 24.9204C8.79 26.3467 14.28 25.7227 18.42 23.3158C21.33 21.5924 24.27 18.205 25.62 14.9067C26.37 13.1535 27.09 9.94437 27.09 8.39923C27.09 7.41866 27.15 7.27009 28.38 6.08151C29.1 5.39809 29.76 4.62551 29.88 4.41751C30.12 4.00151 30.09 4.00151 28.98 4.35808C27.15 5.0118 26.88 4.92266 27.78 3.9718C28.47 3.25866 29.28 2.01066 29.28 1.65408C29.28 1.56494 28.95 1.6838 28.56 1.8918C28.17 2.0998 27.3 2.42666 26.67 2.60494L25.5 2.99123L24.42 2.27808C23.85 1.8918 23.01 1.44608 22.59 1.32723C21.48 1.00038 19.8 1.0598 18.81 1.41637C16.08 2.36723 14.37 4.89294 14.58 7.65637Z" fill="#0093ED"/>
</g>
<defs>
<clipPath id="clip0_3_85">
<rect width="30" height="26" fill="white"/>
</clipPath>
</defs>
</svg>
